<svg class="devsite-search-ai-image" width="24" height="24" viewBox="0 0 24 24" fill="none" xmlns="http://www.w3.org/2000/svg">
                  <g clip-path="url(#clip0_6641_386)">
                    <path d="M19.6 21L13.3 14.7C12.8 15.1 12.225 15.4167 11.575 15.65C10.925 15.8833 10.2333 16 9.5 16C7.68333 16 6.14167 15.375 4.875 14.125C3.625 12.8583 3 11.3167 3 9.5C3 7.68333 3.625 6.15 4.875 4.9C6.14167 3.63333 7.68333 3 9.5 3C10.0167 3 10.5167 3.05833 11 3.175C11.4833 3.275 11.9417 3.43333 12.375 3.65L10.825 5.2C10.6083 5.13333 10.3917 5.08333 10.175 5.05C9.95833 5.01667 9.73333 5 9.5 5C8.25 5 7.18333 5.44167 6.3 6.325C5.43333 7.19167 5 8.25 5 9.5C5 10.75 5.43333 11.8167 6.3 12.7C7.18333 13.5667 8.25 14 9.5 14C10.6667 14 11.6667 13.625 12.5 12.875C13.35 12.1083 13.8417 11.15 13.975 10H15.975C15.925 10.6333 15.7833 11.2333 15.55 11.8C15.3333 12.3667 15.05 12.8667 14.7 13.3L21 19.6L19.6 21ZM17.5 12C17.5 10.4667 16.9667 9.16667 15.9 8.1C14.8333 7.03333 13.5333 6.5 12 6.5C13.5333 6.5 14.8333 5.96667 15.9 4.9C16.9667 3.83333 17.5 2.53333 17.5 0.999999C17.5 2.53333 18.0333 3.83333 19.1 4.9C20.1667 5.96667 21.4667 6.5 23 6.5C21.4667 6.5 20.1667 7.03333 19.1 8.1C18.0333 9.16667 17.5 10.4667 17.5 12Z" fill="#5F6368"></path>
                  </g>
                <defs>
                <clipPath id="clip0_6641_386">
                <rect width="24" height="24" fill="white"></rect>
                </clipPath>
                </defs>
              </svg>